<?xml version="1.0" encoding="UTF-8"?>
<!DOCTYPE svg PUBLIC "-//W3C//DTD SVG 1.1//EN" "http://www.w3.org/Graphics/SVG/1.1/DTD/svg11.dtd">
<!-- Creator: CorelDRAW -->
<svg xmlns="http://www.w3.org/2000/svg" xml:space="preserve" width="2048px" height="2048px" style="shape-rendering:geometricPrecision; text-rendering:geometricPrecision; image-rendering:optimizeQuality; fill-rule:evenodd; clip-rule:evenodd"
viewBox="0 0 2048 2048"
 xmlns:xlink="http://www.w3.org/1999/xlink">
 <defs>
  <style type="text/css">
   <![CDATA[
    .fil2 {fill:none}
    .fil5 {fill:#19252B}
    .fil4 {fill:#263238}
    .fil8 {fill:#8BC34A}
    .fil3 {fill:#B0BEC5}
    .fil7 {fill:#D50000}
    .fil1 {fill:#E53935}
    .fil0 {fill:#EF5350}
    .fil6 {fill:#FF6F00}
   ]]>
  </style>
   <clipPath id="id0">
    <path d="M1024 -0.0011811c565.541,0 1024,458.461 1024,1024 0,565.541 -458.461,1024 -1024,1024 -565.541,0 -1024,-458.461 -1024,-1024 0,-565.541 458.461,-1024 1024,-1024z"/>
   </clipPath>
 </defs>
 <g id="Layer_x0020_1">
  <metadata id="CorelCorpID_0Corel-Layer"/>
  <path class="fil0" d="M1024 -0.0011811c565.541,0 1024,458.461 1024,1024 0,565.541 -458.461,1024 -1024,1024 -565.541,0 -1024,-458.461 -1024,-1024 0,-565.541 458.461,-1024 1024,-1024z"/>
  <g style="clip-path:url(#id0)">
   <g id="_466417768">
    <g>
     <polygon id="_4625782481" class="fil1" points="1541.24,532.106 2677.12,1667.99 2682.67,1675.05 2687.89,1682.37 2692.76,1689.94 2697.27,1697.76 2701.4,1705.81 2705.15,1714.07 2708.51,1722.54 2711.45,1731.2 2713.98,1740.04 2716.07,1749.05 2717.72,1758.22 2718.91,1767.53 2719.64,1776.98 2719.88,1786.55 2719.88,1879.88 1584,743.995 1584,650.666 1583.76,641.098 1583.03,631.65 1581.84,622.337 1580.19,613.169 1578.1,604.158 1575.57,595.315 1572.63,586.654 1569.27,578.187 1565.52,569.924 1561.39,561.878 1556.88,554.061 1552.01,546.486 1546.79,539.164 "/>
     <polygon id="_462579496" class="fil1" points="1584,743.995 2719.88,1879.88 2719.88,2533.22 2719.64,2542.79 2718.91,2552.23 2717.72,2561.55 2716.07,2570.71 2713.98,2579.73 2711.45,2588.57 2708.51,2597.23 2705.15,2605.7 2701.4,2613.96 2697.27,2622.01 2692.76,2629.82 2687.89,2637.4 2682.67,2644.72 2677.12,2651.78 2671.24,2658.56 2665.05,2665.05 2658.56,2671.24 2651.78,2677.12 2644.72,2682.67 2637.4,2687.89 2629.82,2692.76 2622,2697.27 2613.96,2701.4 2605.69,2705.15 2597.23,2708.51 2588.57,2711.46 2579.72,2713.98 2570.71,2716.07 2561.54,2717.72 2552.23,2718.92 2542.78,2719.64 2533.21,2719.88 1786.55,2719.88 1776.98,2719.64 1767.53,2718.92 1758.22,2717.72 1749.05,2716.07 1740.04,2713.98 1731.2,2711.46 1722.54,2708.51 1714.07,2705.15 1705.8,2701.4 1697.76,2697.27 1689.94,2692.76 1682.37,2687.89 1675.04,2682.67 1667.99,2677.12 532.106,1541.24 539.163,1546.79 546.486,1552.01 554.061,1556.88 561.878,1561.39 569.924,1565.52 578.187,1569.27 586.654,1572.63 595.315,1575.57 604.158,1578.1 613.169,1580.19 622.337,1581.84 631.65,1583.03 641.098,1583.76 650.666,1584 1397.33,1584 1406.9,1583.76 1416.35,1583.03 1425.66,1581.84 1434.83,1580.19 1443.84,1578.1 1452.68,1575.57 1461.35,1572.63 1469.81,1569.27 1478.08,1565.52 1486.12,1561.39 1493.94,1556.88 1501.51,1552.01 1508.84,1546.79 1515.89,1541.24 1522.68,1535.36 1529.17,1529.17 1535.36,1522.68 1541.24,1515.9 1546.79,1508.84 1552.01,1501.52 1556.88,1493.94 1561.39,1486.12 1565.52,1478.08 1569.27,1469.81 1572.63,1461.35 1575.57,1452.69 1578.1,1443.84 1580.19,1434.83 1581.84,1425.66 1583.03,1416.35 1583.76,1406.9 1584,1397.33 "/>
    </g>
    <path id="_466417744" class="fil1" d="M650.666 464l746.668 0c102.667,0 186.667,83.9989 186.667,186.666l0 93.3284 0 653.34c0,102.667 -84.0001,186.666 -186.667,186.666l-746.668 0c-102.667,0 -186.667,-83.9989 -186.667,-186.666l0 -653.34 0 -93.3284c0,-102.667 84.0001,-186.666 186.667,-186.666z"/>
   </g>
  </g>
  <path class="fil2" d="M1024 -0.0011811c565.541,0 1024,458.461 1024,1024 0,565.541 -458.461,1024 -1024,1024 -565.541,0 -1024,-458.461 -1024,-1024 0,-565.541 458.461,-1024 1024,-1024z"/>
  <rect class="fil3" x="463.999" y="464" width="1120" height="1120" rx="186.666" ry="186.666"/>
  <path class="fil4" d="M650.666 464l746.668 0c102.667,0 186.667,83.9989 186.667,186.666l0 93.3284 -1120 0 0 -93.3284c0,-102.667 84.0001,-186.666 186.667,-186.666z"/>
  <path class="fil5" d="M1277.56 1121.9l12.2185 -0.318898 0.0153543 0.640158 1.19173 0.0307087 -0.595276 24.2658 0.595276 24.2658 -1.19173 0.0307087 -0.0153543 0.638977 -12.2197 -0.317717c-14.1189,0.42874 -29.6303,3.00355 -41.2902,11.1154 -7.89213,5.48977 -13.1126,12.9602 -16.7315,21.5421 -4.54134,10.7705 1.91103,49.7457 3.65433,61.8697 8.05276,55.9996 21,136.16 -38.804,171.273 -10.513,6.17363 -22.1847,10.2295 -34.1563,12.9 -13.7929,3.07677 -28.1847,4.36063 -42.3177,4.78465l-12.8953 0.386221 -1.40906 -49.2 12.7996 -0.383859c10.7315,-0.32126 21.7973,-1.24016 32.2736,-3.57756 6.49725,-1.44803 13.2083,-3.56929 18.926,-6.92717 2.8937,-1.69843 5.46615,-3.77481 7.70788,-6.21733 22.1268,-24.1051 11.3764,-85.9784 7.00276,-116.397 -3.5752,-24.8599 -10.3819,-63.2599 -0.413386,-86.8997 6.41693,-15.2209 15.7335,-28.4233 28.6677,-38.8866 -12.9343,-10.4646 -22.2508,-23.6658 -28.6677,-38.8866 -9.96851,-23.6398 -3.16181,-62.0398 0.413386,-86.8997 1.37835,-9.58583 2.75551,-19.1728 3.89528,-28.7882 3.04134,-25.637 8.85827,-77.7012 -18.6059,-93.8268 -5.71772,-3.3567 -12.4287,-5.47796 -18.926,-6.92717 -10.4764,-2.33622 -21.5421,-3.25512 -32.2736,-3.57638l-12.7996 -0.383859 1.40906 -49.2 12.8953 0.386221c14.1331,0.424016 28.5248,1.70788 42.3177,4.78465 11.9717,2.67047 23.6433,6.72638 34.1563,12.8988 59.804,35.1142 46.8567,115.274 38.804,171.274 -1.74331,12.124 -8.19568,51.0993 -3.65433,61.8697 3.6189,8.5819 8.83938,16.0524 16.7315,21.5421 11.6599,8.11182 27.1725,10.6854 41.2914,11.1154zm-430.127 24.6177c12.9343,10.4634 22.2508,23.6658 28.6677,38.8866 9.96851,23.6398 3.16181,62.0398 -0.413386,86.8997 -1.37835,9.58583 -2.75551,19.1728 -3.89646,28.787 -3.04016,25.6382 -8.85709,77.7024 18.6071,93.8268 5.71772,3.35788 12.4287,5.47914 18.926,6.92717 10.4764,2.3374 21.5421,3.2563 32.2736,3.57756l12.7996 0.383859 -1.40906 49.2 -12.8953 -0.386221c-14.1331,-0.424016 -28.5248,-1.70788 -42.3177,-4.78465 -11.9717,-2.67047 -23.6433,-6.72638 -34.1563,-12.9 -59.804,-35.113 -46.8567,-115.273 -38.804,-171.273 1.74331,-12.124 8.19568,-51.0993 3.65433,-61.8697 -3.6189,-8.5819 -8.84056,-16.0524 -16.7315,-21.5421 -11.6599,-8.11182 -27.1713,-10.6866 -41.2902,-11.1154l-12.2197 0.317717 -0.0153543 -0.638977 -1.19173 -0.0307087 0.595276 -24.2658 -0.595276 -24.2658 1.19173 -0.0307087 0.0153543 -0.640158 12.2185 0.318898c14.1189,-0.429922 29.6315,-3.00355 41.2914,-11.1154 7.89095,-5.48977 13.1126,-12.9602 16.7315,-21.5421 4.54134,-10.7705 -1.91103,-49.7457 -3.65433,-61.8697 -8.05276,-55.9996 -21,-136.16 38.804,-171.274 10.513,-6.17245 22.1847,-10.2284 34.1563,-12.8988 13.7929,-3.07677 28.1847,-4.36063 42.3177,-4.78465l12.8953 -0.386221 1.40906 49.2 -12.7996 0.383859c-10.7315,0.32126 -21.7973,1.24016 -32.2736,3.57638 -6.49725,1.44921 -13.2083,3.57048 -18.926,6.92717 -2.8937,1.69961 -5.46615,3.77599 -7.70788,6.21851 -22.1268,24.1051 -11.3764,85.9784 -7.00276,116.397 3.5752,24.8599 10.3819,63.2599 0.413386,86.8997 -6.41693,15.2209 -15.7335,28.4221 -28.6677,38.8866z"/>
  <rect class="fil6" x="1322.84" y="580.661" width="68.5715" height="68.5715" rx="14.5831" ry="14.5831"/>
  <rect class="fil7" x="1411.67" y="580.661" width="68.5715" height="68.5715" rx="14.5831" ry="14.5831"/>
  <rect class="fil8" x="1234" y="580.661" width="68.5715" height="68.5715" rx="14.5831" ry="14.5831"/>
 </g>
</svg>
